:SAMPLES-PER-SECOND 30
:FULLY-SPECIFIED
:DEGREES
1314
root  11.2747 39.3225 12.0329 176.785 43.9801 174.666
RightUpLeg  0.36019 -43.2022 -20.7053
RightLeg  27.484 -19.0128 -10.6367
RightFoot  -6.75529 -0.517143 11.7241
RightToes  0.000481921 0.542163 -0.142578
Spine  22.0381 2.12019 12.8332
Spine1  -0.804459 6.84068 -13.5744
HEad  15.8224 -29.483 -2.79271
LeftShoulder1  2.73664 -3.75541 -31.5465
LeftArm  -5.72013 17.9465 -38.6224
LeftForeArm  -165.845 -51.647 -168.985
LeftHand  -0.25398 0.0180481 5.50724
RightShoulder  0.828518 0.129011 16.0915
RightArm  -48.9891 -15.5075 31.8376
RightForeArm  -155.528 52.4783 169.748
RightHand  -4.41982 -16.9963 40.1095
LeftUpLeg  -19.796 2.97598 -3.04565
LeftLeg  19.4872 -15.0592 -5.52884
LeftFoot  1.86461 0.589686 -5.19134
LeftToes  1.06245e-005 4.65869e-005 -8.65517e-006
1315
root  10.8535 39.2624 11.9431 175.304 47.4215 173.469
RightUpLeg  -1.54256 -41.1387 -21.1225
RightLeg  28.2212 -17.5174 -10.1512
RightFoot  -6.68207 -0.525414 11.7543
RightToes  0.000481921 0.542163 -0.142578
Spine  23.4635 2.43626 16.8505
Spine1  -0.77907 9.25417 -19.7576
HEad  17.253 -31.4024 -3.66893
LeftShoulder1  3.15735 -5.04864 -30.7816
LeftArm  -5.3457 15.1071 -36.844
LeftForeArm  -165.924 -52.5223 -168.624
LeftHand  -0.25398 0.0180481 5.50724
RightShoulder  0.618105 -0.219775 11.8162
RightArm  -47.8119 -5.62755 25.201
RightForeArm  -175.686 70.2149 151.149
RightHand  -4.31467 -19.0929 32.4397
LeftUpLeg  -19.496 4.20895 -3.94682
LeftLeg  19.5679 -12.5985 -4.60977
LeftFoot  1.80391 0.441319 -3.9237
LeftToes  1.06245e-005 4.65869e-005 -8.65517e-006
1316
root  10.3982 39.1959 11.8139 174.084 51.293 172.338
RightUpLeg  -4.08014 -39.1379 -20.9663
RightLeg  28.847 -15.8449 -9.4742
RightFoot  -6.38894 -0.533296 11.2943
RightToes  0.000481921 0.542163 -0.142578
Spine  23.9632 2.39518 20.1332
Spine1  0.726951 11.0888 -23.8499
HEad  18.1206 -31.0082 -7.23628
LeftShoulder1  3.39957 -5.66678 -30.9712
LeftArm  -6.77118 13.5815 -35.2045
LeftForeArm  -168.38 -53.0118 -168.248
LeftHand  -0.25398 0.0180481 5.50724
RightShoulder  0.536138 0.5432 5.66644
RightArm  -47.1957 8.54263 18.5967
RightForeArm  73.5384 74.8851 42.6353
RightHand  -1.27769 -13.9213 13.0677
LeftUpLeg  -19.6519 4.78951 -4.56679
LeftLeg  19.8209 -9.20556 -3.34235
LeftFoot  1.61219 0.281262 -2.56351
LeftToes  1.06245e-005 4.65869e-005 -8.65517e-006
1317
root  9.99449 39.1578 11.7102 172.496 55.9342 170.677
RightUpLeg  -7.14398 -36.2192 -20.2694
RightLeg  29.2469 -14.4857 -8.84652
RightFoot  -5.9252 -0.536459 10.4604
RightToes  0.000481921 0.542163 -0.142578
Spine  24.6035 2.50653 22.4796
Spine1  2.14688 12.9286 -27.2574
HEad  19.0325 -29.652 -10.929
LeftShoulder1  3.29162 -5.56585 -30.1683
LeftArm  -8.17531 12.7623 -35.0335
LeftForeArm  -169.714 -53.4073 -167.984
LeftHand  -0.25398 0.0180481 5.50724
RightShoulder  0.286666 1.21803 -2.80992
RightArm  -48.2879 22.5585 14.8438
RightForeArm  42.8537 39.5759 4.50084
RightHand  0.0868284 -1.71403 -1.19595
LeftUpLeg  -19.8179 6.34025 -5.05156
LeftLeg  19.9064 -6.17307 -2.1527
LeftFoot  1.42639 0.1929 -1.80303
LeftToes  1.06245e-005 4.65869e-005 -8.65517e-006
1318
root  9.76844 39.1794 11.6709 171.046 59.3 169.031
RightUpLeg  -9.05309 -34.5786 -19.8183
RightLeg  28.8847 -13.2165 -8.00706
RightFoot  -5.58022 -0.528746 9.72568
RightToes  0.000481921 0.542163 -0.142578
Spine  25.4945 2.78933 23.4913
Spine1  2.01137 14.1703 -29.8147
HEad  20.7736 -28.7647 -12.4497
LeftShoulder1  2.90899 -5.04443 -27.8588
LeftArm  -8.00259 12.4437 -36.4216
LeftForeArm  -167.433 -53.4935 -168.107
LeftHand  -0.25398 0.0180481 5.50724
RightShoulder  0.0131078 0.547297 -9.32428
RightArm  -49.0925 29.1641 15.8105
RightForeArm  51.248 19.7356 1.11828
RightHand  -0.173138 4.0302 -2.64609
LeftUpLeg  -19.7457 8.44831 -5.42334
LeftLeg  19.4477 -4.96966 -1.62157
LeftFoot  1.48446 0.187357 -1.74707
LeftToes  1.06245e-005 4.65869e-005 -8.65517e-006
